<?xml version="1.0" standalone="no"?>
<!DOCTYPE svg PUBLIC "-//W3C//DTD SVG 1.1//EN" "http://www.w3.org/Graphics/SVG/1.1/DTD/svg11.dtd" >
<svg xmlns="http://www.w3.org/2000/svg">
<metadata>Generated by IcoMoon</metadata>
<defs>
<font id="icomoon" horiz-adv-x="1024">
<font-face units-per-em="1024" ascent="960" descent="-64" />
<missing-glyph horiz-adv-x="1024" />
<glyph unicode="&#x20;" horiz-adv-x="512" d="" />
<glyph unicode="&#xe900;" glyph-name="download" d="M432 960h160c26.6 0 48-21.4 48-48v-336h175.4c35.6 0 53.4-43 28.2-68.2l-304.2-304.4c-15-15-39.6-15-54.6 0l-304.6 304.4c-25.2 25.2-7.4 68.2 28.2 68.2h175.6v336c0 26.6 21.4 48 48 48zM1024 208v-224c0-26.6-21.4-48-48-48h-928c-26.6 0-48 21.4-48 48v224c0 26.6 21.4 48 48 48h293.4l98-98c40.2-40.2 105-40.2 145.2 0l98 98h293.4c26.6 0 48-21.4 48-48zM776 32c0 22-18 40-40 40s-40-18-40-40 18-40 40-40 40 18 40 40zM904 32c0 22-18 40-40 40s-40-18-40-40 18-40 40-40 40 18 40 40z" />
<glyph unicode="&#xe901;" glyph-name="new-file" horiz-adv-x="768" d="M448 688v272h-400c-26.6 0-48-21.4-48-48v-928c0-26.6 21.4-48 48-48h672c26.6 0 48 21.4 48 48v656h-272c-26.4 0-48 21.6-48 48zM768 716.2v-12.2h-256v256h12.2c12.8 0 25-5 34-14l195.8-196c9-9 14-21.2 14-33.8z" />
<glyph unicode="&#xe902;" glyph-name="open" horiz-adv-x="1152" d="M1145.388 375.814l-144.848-248.31c-22.607-38.251-63.634-63.504-110.56-63.504-0.001 0-0.002 0-0.002 0h-799.928c-37.046 0-60.128 40.186-41.462 72.186l144.848 248.31c22.608 38.251 63.637 63.504 110.563 63.504 0 0 0 0 0.001 0h799.928c37.046 0 60.128-40.186 41.46-72.186zM304 512h656v96c0 53.020-42.98 96-96 96h-320l-128 128h-320c-53.020 0-96-42.98-96-96v-556.092l138.154 236.836c34.274 58.756 97.824 95.256 165.846 95.256z" />
<glyph unicode="&#xe903;" glyph-name="save" horiz-adv-x="896" d="M867.882 700.118l-167.764 167.764c-17.373 17.373-41.372 28.118-67.882 28.118h-536.236c-53.020 0-96-42.98-96-96v-704c0-53.020 42.98-96 96-96h704c53.020 0 96 42.98 96 96v536.236c0 26.51-10.745 50.509-28.118 67.882v0zM448 128c-70.692 0-128 57.308-128 128s57.308 128 128 128 128-57.308 128-128c0-70.692-57.308-128-128-128zM640 737.040v-201.040c0-13.254-10.746-24-24-24h-464c-13.254 0-24 10.746-24 24v208c0 13.254 10.746 24 24 24h457.040c6.366 0 12.47-2.528 16.97-7.030l6.96-6.96c4.343-4.342 7.030-10.341 7.030-16.968 0-0.001 0-0.002 0-0.002v0z" />
<glyph unicode="&#xe904;" glyph-name="redo" d="M512.91 944c132.538-0.238 252.874-52.466 341.718-137.37l71.43 71.43c30.24 30.238 81.942 8.822 81.942-33.942v-268.118c0-26.51-21.49-48-48-48h-268.118c-42.764 0-64.18 51.702-33.942 81.942l83.5 83.5c-61.728 57.798-141.602 89.814-226.46 90.546-184.796 1.596-340.566-147.954-338.968-338.884 1.516-181.122 148.356-333.104 335.988-333.104 82.254 0 159.994 29.356 221.258 83.112 9.486 8.322 23.812 7.816 32.736-1.106l79.324-79.324c9.744-9.744 9.262-25.63-0.964-34.866-87.95-79.442-204.502-127.816-332.354-127.816-273.932 0-495.998 222.066-496 495.996-0.002 273.618 223.292 496.494 496.91 496.004z" />
<glyph unicode="&#xe905;" glyph-name="undo" d="M511.090 944c-132.538-0.238-252.876-52.466-341.72-137.37l-71.428 71.428c-30.24 30.24-81.942 8.824-81.942-33.94v-268.118c0-26.51 21.49-48 48-48h268.118c42.764 0 64.18 51.702 33.942 81.942l-83.5 83.5c61.728 57.798 141.602 89.814 226.46 90.546 184.796 1.596 340.566-147.954 338.968-338.884-1.516-181.122-148.356-333.104-335.988-333.104-82.254 0-159.994 29.356-221.26 83.112-9.486 8.322-23.812 7.816-32.736-1.106l-79.324-79.324c-9.744-9.744-9.262-25.63 0.964-34.866 87.952-79.442 204.504-127.816 332.356-127.816 273.932 0 495.998 222.066 496 495.996 0.002 273.618-223.292 496.494-496.91 496.004z" />
<glyph unicode="&#xe906;" glyph-name="zoom-out" d="M608 576v-64c0-13.2-10.8-24-24-24h-336c-13.2 0-24 10.8-24 24v64c0 13.2 10.8 24 24 24h336c13.2 0 24-10.8 24-24zM1010 6.6l-56.6-56.6c-18.8-18.8-49.2-18.8-67.8 0l-199.6 199.4c-9 9-14 21.2-14 34v32.6c-70.6-55.2-159.4-88-256-88-229.8 0-416 186.2-416 416s186.2 416 416 416 416-186.2 416-416c0-96.6-32.8-185.4-88-256h32.6c12.8 0 25-5 34-14l199.4-199.4c18.6-18.8 18.6-49.2 0-68zM688 544c0 150.4-121.6 272-272 272s-272-121.6-272-272 121.6-272 272-272 272 121.6 272 272z" />
<glyph unicode="&#xe907;" glyph-name="zoom-in" d="M608 576v-64c0-13.2-10.8-24-24-24h-112v-112c0-13.2-10.8-24-24-24h-64c-13.2 0-24 10.8-24 24v112h-112c-13.2 0-24 10.8-24 24v64c0 13.2 10.8 24 24 24h112v112c0 13.2 10.8 24 24 24h64c13.2 0 24-10.8 24-24v-112h112c13.2 0 24-10.8 24-24zM1010 6.6l-56.6-56.6c-18.8-18.8-49.2-18.8-67.8 0l-199.6 199.4c-9 9-14 21.2-14 34v32.6c-70.6-55.2-159.4-88-256-88-229.8 0-416 186.2-416 416s186.2 416 416 416 416-186.2 416-416c0-96.6-32.8-185.4-88-256h32.6c12.8 0 25-5 34-14l199.4-199.4c18.6-18.8 18.6-49.2 0-68zM688 544c0 150.4-121.6 272-272 272s-272-121.6-272-272 121.6-272 272-272 272 121.6 272 272z" />
<glyph unicode="&#xe908;" glyph-name="canvas-modal" d="M218.92 471.92l269.16 269.12-88.24 88.24-123.36-123.36c-2.867-2.873-6.831-4.65-11.21-4.65s-8.343 1.777-11.21 4.649v0l-22.42 22.42c-6.2 6.2-6.2 16.24 0 22.42l123.36 123.36-67.28 67.3c-24.78 24.78-64.94 24.78-89.72 0l-179.42-179.42c-24.76-24.78-24.78-64.94 0-89.72l200.34-200.36zM995.86 705.52c37.52 37.52 37.5 98.34 0 135.86l-90.5 90.5c-37.52 37.52-98.36 37.52-135.9 0l-92.040-92.020 226.4-226.4 92.040 92.060zM632.16 794.58l-594-593.92-37.52-214.88c-5.060-28.98 20.18-54.22 49.18-49.12l214.9 37.68 593.84 593.86-226.4 226.38zM1005.42 223.72l-67.28 67.28-123.36-123.36c-6.2-6.2-16.24-6.2-22.42 0l-22.42 22.42c-6.18 6.2-6.18 16.24 0 22.42l123.36 123.36-88.28 88.28-269.16-269.12 200.42-200.4c24.78-24.78 64.94-24.78 89.72 0l179.42 179.4c24.78 24.78 24.78 64.94 0 89.72z" />
<glyph unicode="&#xe909;" glyph-name="run" horiz-adv-x="896" d="M848.8 530.6l-704 416.2c-57.2 33.8-144.8 1-144.8-82.6v-832.2c0-75 81.4-120.2 144.8-82.6l704 416c62.8 37 63 128.2 0 165.2z" />
<glyph unicode="&#xe90a;" glyph-name="text-category" horiz-adv-x="896" d="M864 128h-46.82l-261.42 724.62c-8.847 25.444-32.623 43.38-60.587 43.38-0.004 0-0.009 0-0.013 0h-94.319c-0.004 0-0.008 0-0.013 0-27.965 0-51.74-17.936-60.451-42.931l-0.136-0.449-261.42-724.62h-46.82c-17.673 0-32-14.327-32-32v0-64c0-17.673 14.327-32 32-32v0h256c17.673 0 32 14.327 32 32v0 64c0 17.673-14.327 32-32 32v0h-39.16l46.6 128h305.12l46.6-128h-39.16c-17.673 0-32-14.327-32-32v0-64c0-17.673 14.327-32 32-32v0h256c17.673 0 32 14.327 32 32v0 64c0 17.673-14.327 32-32 32v0zM353.7 416l94.3 258.98 94.3-258.98z" />
<glyph unicode="&#xe90b;" glyph-name="canvas" horiz-adv-x="1395" d="M682.795 627.626l-54.009 54.137-75.639-75.639c-0.64-0.64-1.28-1.024-2.048-1.536-1.536-0.896-3.072-1.28-4.863-1.28s-3.2 0.384-4.863 1.28c-0.768 0.512-1.28 0.896-1.92 1.536l-13.822 13.822c-3.712 3.712-3.712 9.855 0 13.694l75.639 75.639-41.211 41.211c-15.23 15.23-39.803 15.23-55.033 0l-109.938-109.938c-15.23-15.23-15.23-39.803 0-55.033l122.737-122.737 164.971 164.843zM994.052 689.186l-55.417 55.417c-23.037 23.037-60.28 23.037-83.318 0l-56.441-56.313 138.735-138.863 56.441 56.441c23.037 23.037 23.037 60.28 0 83.318zM771.104 660.517l-363.986-364.114-23.037-131.696c-3.072-17.662 12.414-33.148 30.204-30.076l131.696 23.165 363.986 363.986-138.863 138.735zM999.939 310.609l-41.211 41.211-75.639-75.639c-3.84-3.712-9.983-3.712-13.694 0l-13.822 13.822c-3.712 3.712-3.712 9.855 0 13.694l75.639 75.639-54.137 54.137-164.971-164.971 122.865-122.865c15.23-15.23 39.803-15.23 55.033 0l109.938 109.938c15.23 15.23 15.23 39.803 0 55.033zM234.595 866.7h925.836c69.367 0 138.735-69.239 138.735-138.607v-554.683c0-69.239-69.367-138.607-138.735-138.607h-925.836c-69.367 0-138.607 69.367-138.607 138.607v554.683c0 69.367 69.239 138.607 138.607 138.607zM170.603 960c-85.365 0-170.603-85.237-170.603-170.603v-682.667c0-85.365 85.237-170.731 170.603-170.731h1053.82c85.365 0 170.731 85.365 170.731 170.731v682.667c0 85.365-85.365 170.603-170.731 170.603h-1053.82z" />
<glyph unicode="&#xe90c;" glyph-name="list-ol" d="M123.54 158l35 40.3c6.317 7.021 10.18 16.359 10.18 26.599 0 0.626-0.014 1.249-0.043 1.869l0.003-0.088v6.62c0 14.7-7.68 22.7-22.68 22.7h-114c-8.837 0-16-7.163-16-16v0-32c0-8.837 7.163-16 16-16v0h45.66c-7.566-7.62-14.76-15.645-21.534-24.024l-0.466-0.596-11.22-14c-8-10.14-10.5-20.26-5.6-29.76l2.1-3.86c6-11.52 12.58-15.76 24.5-15.76h9.46c20.66 0 31.88-4.88 31.88-18.18 0-9.44-8.4-16.44-28.72-16.44-11.179 0.091-21.8 2.376-31.487 6.444l0.547-0.204c-12.98 7.76-23.48 7-31.2-6.24l-11.18-18.62c-7.44-12.26-6.38-23.44 5.26-31.88 15.42-9.38 40.76-18.88 74-18.88 68.32 0 97 45.5 97 88.24-0.060 28.76-18.24 59.52-57.46 69.76zM992 512h-640c-17.673 0-32-14.327-32-32v0-64c0-17.673 14.327-32 32-32v0h640c17.673 0 32 14.327 32 32v0 64c0 17.673-14.327 32-32 32v0zM992 832h-640c-17.673 0-32-14.327-32-32v0-64c0-17.673 14.327-32 32-32v0h640c17.673 0 32 14.327 32 32v0 64c0 17.673-14.327 32-32 32v0zM992 192h-640c-17.673 0-32-14.327-32-32v0-64c0-17.673 14.327-32 32-32v0h640c17.673 0 32 14.327 32 32v0 64c0 17.673-14.327 32-32 32v0zM32 640h128c8.837 0 16 7.163 16 16v0 32c0 8.837-7.163 16-16 16v0h-32v176c0 8.837-7.163 16-16 16v0h-48c-6.215-0.011-11.598-3.565-14.238-8.749l-0.042-0.091-16-32c-1.066-2.086-1.691-4.55-1.691-7.16 0-8.827 7.147-15.984 15.97-16h16.002v-128h-32c-8.837 0-16-7.163-16-16v0-32c0-8.837 7.163-16 16-16v0zM24.18 320h135.82c8.837 0 16 7.163 16 16v0 32c0 8.837-7.163 16-16 16v0h-77.36c6.58 20.58 96.68 37.36 96.68 112.88 0 58.12-50 79.12-88.94 79.12-42.72 0-67.6-20-80.92-37.5-8.74-11.18-6-21.68 5.6-30.74l17.16-13.76c11.22-9.12 22-4.94 32.24 4.88 4.844 4.749 11.486 7.68 18.812 7.68 0.038 0 0.076 0 0.114 0h-0.006c6.66 0 18.56-3.12 18.56-17.5 0.060-25.44-101.94-43.68-101.94-138.24v-8c0-14.82 10.16-22.82 24.18-22.82z" />
<glyph unicode="&#xe90d;" glyph-name="shapes" d="M256 448c-141.385 0-256-114.615-256-256s114.615-256 256-256c141.385 0 256 114.615 256 256v0c0 141.385-114.615 256-256 256v0zM1014 557.72l-213.86 365.7c-13.211 22.051-36.979 36.582-64.14 36.582s-50.929-14.531-63.952-36.244l-0.188-0.338-213.86-365.7c-28.48-48.76 7.16-109.72 64.18-109.72h427.64c57.020 0 92.66 60.96 64.18 109.72zM960 384h-320c-35.346 0-64-28.654-64-64v0-320c0-35.346 28.654-64 64-64v0h320c35.346 0 64 28.654 64 64v0 320c0 35.346-28.654 64-64 64v0z" />
<glyph unicode="&#xe90e;" glyph-name="loop-category" d="M741.44 693.44c-62.524 58.544-143.664 90.636-229.744 90.56-154.916-0.136-288.656-106.356-325.582-253.7-2.688-10.726-12.244-18.3-23.302-18.3h-114.606c-14.996 0-26.388 13.614-23.614 28.352 43.274 229.8 245.034 403.648 487.408 403.648 132.896 0 253.582-52.272 342.63-137.37l71.43 71.43c30.238 30.238 81.94 8.822 81.94-33.942v-268.118c0-26.51-21.49-48-48-48h-268.118c-42.764 0-64.18 51.702-33.942 81.942l83.5 83.498zM64 368h268.118c42.764 0 64.18-51.702 33.942-81.942l-83.5-83.5c62.524-58.546 143.67-90.638 229.752-90.56 154.836 0.14 288.63 106.288 325.574 253.698 2.688 10.726 12.244 18.3 23.302 18.3h114.608c14.996 0 26.388-13.614 23.614-28.352-43.276-229.796-245.036-403.644-487.41-403.644-132.896 0-253.582 52.272-342.63 137.37l-71.43-71.43c-30.238-30.238-81.94-8.822-81.94 33.942v268.118c0 26.51 21.49 48 48 48z" />
<glyph unicode="&#xe90f;" glyph-name="function" d="M351.194 760.004v-1.391l-0.253-1.643-0.379-4.678-1.264-11.757-2.276-13.653-0.632-3.413-0.885-3.287-0.759-3.034-1.138-3.16-0.759-3.034-0.632-1.138-0.379-1.391-0.632-1.138-0.632-1.011-0.506-1.138-0.632-0.885-0.632-0.759-0.632-0.885-0.632-0.506-0.379-0.506-0.253-0.253h-0.379l-0.253-0.253-0.379-0.126-0.379-0.253h-2.908l-0.632 0.253h-0.885l-0.632 0.126-1.643 0.506-7.332 2.655-2.276 0.632-2.402 0.759-2.276 0.379-2.655 0.759-2.781 0.506-2.655 0.379-3.16 0.253h-5.689l-2.781-0.253-2.402-0.126-2.528-0.506-2.402-0.506-2.276-0.506-2.023-0.632-2.149-1.011-1.896-0.885-2.023-0.885-1.896-1.517-1.77-1.138-1.643-1.391-3.287-3.287-1.517-1.896-1.391-1.896-1.264-2.023-1.517-2.402-1.264-2.276-1.264-2.655-1.011-2.528-1.264-2.781-1.011-3.16-1.896-6.068-1.896-6.953-1.643-7.585-1.517-7.964-5.183-29.582h57.268l1.264-0.253h0.506l0.632-0.126 0.759-0.506 0.506-0.253 0.759-0.506 0.506-0.379 0.379-0.253 0.253-0.506 0.379-0.253 0.126-0.379 0.253-0.506 0.253-0.759 0.379-0.885 0.379-1.391 0.253-1.391 0.253-1.517 0.126-1.77 0.253-1.643v-4.298l-0.253-2.276-0.379-5.689-0.253-3.034-0.379-3.287-1.264-7.080-0.632-3.413-0.759-3.54-1.138-3.54-0.759-3.54-1.138-3.54-1.264-3.287-1.011-3.034-1.264-3.034-1.264-2.781-0.632-1.138-0.632-1.264-0.759-1.138-0.632-1.138-0.885-1.011-0.759-0.885-0.885-1.011-0.885-0.632-0.759-0.759-0.885-0.379-0.632-0.253-0.379-0.253-0.506-0.253h-0.379l-0.379-0.253h-58.28l-54.36-304.166-3.16-15.423-3.793-14.791-4.425-13.653-2.276-6.574-5.057-12.136-2.908-5.689-2.908-5.31-3.16-5.436-3.413-4.93-3.287-4.678-7.585-8.849-3.919-4.045-4.172-3.793-8.849-6.574-4.804-3.034-9.861-5.183-5.183-2.023-5.436-2.149-5.689-1.643-5.689-1.391-6.068-1.138-6.068-1.011-6.321-0.632-13.148-0.506-8.597 0.253-7.964 0.506-7.080 0.885-3.413 0.759-3.16 0.632-5.436 1.643-2.276 0.759-2.023 0.632-1.896 1.011-1.517 0.632-1.896 1.138-0.759 1.011-0.506 0.632-0.379 0.506-0.253 0.759-0.379 0.632-0.253 0.759-0.126 0.506-0.253 0.632v0.759l-0.253 0.885-0.126 0.759v0.885l-0.253 2.149v3.793l0.253 1.77 0.126 4.551 0.506 2.781 0.379 3.034 0.885 6.068 2.402 13.4 1.77 6.574 0.759 3.287 1.138 2.781 1.011 2.781 0.379 1.391 0.632 1.264 0.379 1.138 0.632 1.138 0.632 1.011 0.632 0.885 0.506 1.011 0.759 0.632 0.253 0.253 0.379 0.506 0.253 0.253 0.379 0.126 0.506 0.253h0.126l0.506 0.253 0.379 0.253h0.632l0.379 0.253h1.517l1.011-0.253h1.011l1.138-0.253 4.298-0.885 1.264-0.253 3.034-0.506 3.287-0.506h2.149l2.023-0.126h5.31l2.655 0.126 2.528 0.253 2.528 0.506 2.276 0.506 2.276 0.632 2.149 0.759 2.023 0.885 1.896 1.011 2.149 1.138 1.896 1.138 3.287 2.781 1.77 1.643 1.643 1.896 1.391 1.896 1.517 1.896 1.264 2.149 1.517 2.276 1.264 2.402 1.138 2.528 1.138 2.781 1.264 2.908 1.011 3.034 1.896 6.321 1.896 7.080 1.896 7.712 1.643 8.47 52.085 291.65h-40.201l-0.379 0.253h-0.379l-0.632 0.253-0.506 0.253h-0.126l-0.506 0.253-0.379 0.126-0.379 0.506-0.379 0.253-0.253 0.253-0.379 0.506-0.253 0.126-0.253 0.506-0.379 0.506-0.253 0.506-0.759 2.276-0.506 1.391-0.126 1.896-0.253 1.896v8.723l0.379 5.562 0.506 3.034 0.759 6.574 0.632 3.54 2.908 14.033 0.885 3.54 1.011 3.287 1.264 3.287 1.264 2.781 1.517 2.655 0.632 1.391 0.759 1.138 0.885 1.138 0.632 1.011 0.885 1.138 0.759 1.011 0.885 0.632 0.885 0.759 1.011 0.632 0.759 0.506 0.632 0.253 0.506 0.253 0.379 0.126h0.632l1.011 0.253h39.19l6.7 38.558 2.908 15.676 3.793 15.044 2.149 6.953 2.276 6.827 2.528 6.574 2.528 6.321 2.655 6.068 2.908 5.942 3.16 5.31 3.413 5.436 3.287 5.183 3.54 4.678 3.666 4.425 3.919 4.425 3.919 4.045 4.298 3.793 4.298 3.413 4.678 3.287 4.551 3.16 10.114 5.057 5.183 2.149 5.436 2.149 5.436 1.643 5.942 1.391 5.815 1.138 6.321 1.011 6.321 0.632 12.895 0.506h4.678l4.298-0.253 4.678-0.253 4.425-0.506 4.425-0.379 4.172-0.759 3.919-0.632 3.793-1.011 3.54-0.885 3.413-1.011 3.034-0.885 2.781-1.138 2.781-1.264 1.011-0.632 1.011-0.506 0.885-0.506 0.759-0.632 0.632-0.506 0.632-0.759 0.506-0.379 0.379-0.506 0.379-0.759 0.506-0.632 0.379-0.759 0.126-0.632 0.506-0.759 0.126-0.885 0.253-1.011 0.253-0.885v-0.885l0.126-1.264 0.253-2.023v-2.402zM472.683 773.784l-13.653-37.926-11.883-38.684-10.114-39.443-8.344-39.822-6.447-40.581-4.804-41.086-2.781-41.466-0.885-41.971 0.885-42.224 2.908-41.466 4.678-41.086 6.7-40.328 8.344-39.822 9.861-39.443 11.757-38.937 13.4-38.684 0.632-1.391 0.379-1.391 0.253-1.391 0.379-1.391 0.253-1.517v-1.138l0.126-1.138v-2.402l-0.126-0.379v-0.506l-0.253-0.506v-0.632l-0.253-0.506-0.126-0.506-0.506-0.506-0.126-0.379-0.506-0.506-0.126-0.253-0.885-0.885-0.885-0.759-1.011-0.885-1.011-0.759-1.264-0.506-1.517-0.632-1.391-0.506-1.77-0.379-1.643-0.506-1.896-0.506-2.023-0.506-2.402-0.126-4.93-0.506-5.942-0.253-6.447-0.253h-4.551l-4.425 0.253-4.045 0.253-3.54 0.253-3.287 0.379-3.16 0.506-2.781 0.759-3.54 0.885-1.011 0.506-1.138 0.253-1.77 0.885-0.885 0.506-0.632 0.379-0.632 0.506-0.632 0.759-0.632 0.379-0.632 0.759-0.379 0.506-0.506 0.632-0.632 1.264-0.379 0.632-8.976 20.227-8.344 20.354-7.964 20.354-7.206 20.48-6.7 20.354-6.068 20.606-5.436 20.733-4.804 20.859-4.425 20.859-3.54 20.859-3.16 21.112-2.655 21.365-1.896 21.365-1.517 21.239-0.759 21.871-0.253 21.744 0.253 21.618 1.011 21.618 1.517 21.365 1.77 21.239 2.781 21.112 3.16 21.112 3.793 21.112 4.298 20.859 5.057 20.859 5.436 20.733 6.068 20.606 6.574 20.606 7.080 20.606 7.712 20.48 8.47 20.354 8.723 20.48 0.253 0.379 0.126 0.506 0.506 0.506 0.126 0.379 0.506 0.506 0.379 0.253 0.379 0.506 0.506 0.379 0.632 0.253 1.264 1.011 0.759 0.126 1.643 0.759 1.896 0.759 1.138 0.379 1.264 0.253 2.655 0.506 2.908 0.506 3.413 0.379 3.793 0.253h4.298l10.114 0.253h5.815l5.436-0.253 4.93-0.506 4.172-0.632 3.666-0.759 1.77-0.379 1.643-0.506 1.517-0.506 1.264-0.632 1.138-0.506 1.138-0.759 1.011-0.632 0.885-0.759 0.379-0.506 0.379-0.379 0.253-0.506 0.379-0.253 0.253-0.379 0.253-0.506 0.126-0.506 0.253-0.506 0.253-0.379 0.126-0.506v-0.759l0.253-0.379v-3.287l-0.253-1.264v-1.138l-0.379-1.138-0.253-1.138-0.379-1.517zM820.085 263.554l0.632-1.391 0.632-1.643 0.379-1.391 0.506-1.391 0.126-1.517 0.506-2.276v-1.643l-0.253-0.506v-0.379l-0.253-0.759-0.126-0.506-0.253-0.379-0.253-0.506-0.379-0.253-0.253-0.506-0.379-0.379-0.379-0.506-0.379-0.253-1.138-0.885-1.011-0.759-1.264-0.506-1.517-0.632-1.643-0.506-1.896-0.506-1.896-0.379-2.023-0.506-4.678-0.506-5.436-0.506-6.195-0.126-15.17-0.506-25.031 0.632-4.425 0.506-4.045 0.506-3.54 0.506-1.517 0.379-1.391 0.506-1.264 0.506-1.264 0.379-1.011 0.506-1.138 0.506-1.011 0.506-0.759 0.632-0.632 0.506-0.885 0.632-1.264 1.517-0.379 0.632-0.632 0.759-0.506 0.885-0.379 0.759-0.379 0.885-0.506 0.885-57.142 123.133-56.889-123.133-0.506-0.885-0.379-0.885-0.379-0.759-0.506-0.885-0.632-0.759-0.379-0.632-1.264-1.517-0.632-0.632-0.632-0.506-0.759-0.632-0.885-0.506-1.011-0.506-1.138-0.506-1.011-0.379-1.264-0.506-1.391-0.506-1.264-0.379-1.77-0.253-1.643-0.253-3.793-0.506-4.172-0.506-23.64-0.632-13.653 0.506-5.562 0.126-4.93 0.506-2.276 0.253-1.896 0.253-1.896 0.506-1.77 0.379-3.034 1.011-2.276 1.138-1.011 0.759-0.885 0.885-0.379 0.253-0.253 0.506-0.379 0.379-0.253 0.506-0.379 0.253-0.253 0.506-0.126 0.379v0.506l-0.253 0.759v0.379l-0.253 0.506v1.643l0.506 2.276 0.126 1.517 0.506 1.391 0.632 1.391 0.632 1.643 0.632 1.391 85.586 170.287-78.886 159.921-0.885 1.643-1.264 3.287-0.379 1.391-0.506 1.391-0.126 1.391-0.253 1.391v3.034l0.253 0.506v0.506l0.126 0.506 0.253 0.632 0.379 0.506 0.253 0.506 0.253 0.379 0.379 0.253 0.379 0.506 0.506 0.506 0.379 0.126 0.632 0.506 0.379 0.506 1.264 0.506 1.517 0.632 1.391 0.506 1.77 0.379 1.77 0.506 2.149 0.506 4.551 0.632 5.562 0.506 6.195 0.506 15.17 0.253 24.399-0.506 4.425-0.506 3.793-0.379 3.287-0.506 3.034-0.506 1.264-0.253 1.011-0.379 1.011-0.253 1.011-0.506 0.885-0.506 0.885-0.632 0.759-0.506 0.632-0.632 0.632-0.506 0.506-0.759 0.632-0.885 0.506-0.759 0.506-0.632 0.379-1.011 0.632-0.885 0.379-1.011 55.119-115.548 54.613 115.548 0.253 0.759 0.379 0.759 0.253 0.885 0.379 0.506 0.506 0.632 0.379 0.759 0.379 0.632 0.632 0.506 0.632 0.759 0.632 0.379 0.632 0.506 0.885 0.506 0.759 0.506 0.885 0.379 1.011 0.506 1.138 0.506 1.264 0.126 1.264 0.506 2.908 0.759 3.16 0.379 3.666 0.506 4.298 0.253 4.93 0.253 12.136 0.253 13.653-0.253 5.815-0.253 4.93-0.253 2.276-0.253 2.023-0.253 1.896-0.379 1.643-0.506 1.517-0.506 1.517-0.379 1.264-0.506 0.632-0.506 0.379-0.253 0.379-0.379 0.632-0.253 0.379-0.506 0.253-0.506 0.379-0.126 0.506-0.506 0.126-0.506 0.253-0.506 0.253-0.379 0.126-0.506 0.253-0.506 0.253-0.632v-3.54l-0.253-1.391-0.379-1.391-0.506-1.517-0.379-1.643-0.885-1.517-0.506-1.896-1.138-1.896-76.863-157.14 84.828-173.069zM1017.805 452.045l-0.253-21.744-0.759-21.871-1.517-21.239-1.896-21.365-2.655-21.365-3.034-21.112-3.666-20.859-4.425-20.859-4.804-20.859-5.436-20.733-6.068-20.606-6.574-20.354-7.080-20.48-7.712-20.354-8.47-20.354-9.102-20.227-0.253-0.632-0.632-1.264-0.379-0.632-0.632-0.506-0.506-0.759-0.632-0.379-0.632-0.759-0.632-0.506-0.759-0.379-0.885-0.506-0.759-0.506-0.885-0.379-1.011-0.253-1.138-0.506-1.264-0.253-2.276-0.632-2.908-0.759-2.908-0.506-3.413-0.379-3.54-0.253-3.919-0.253-4.425-0.253h-4.678l-6.7 0.253-6.068 0.253-4.93 0.506-2.402 0.126-1.896 0.506-1.77 0.506-1.896 0.506-1.77 0.379-1.391 0.506-1.264 0.632-1.517 0.506-1.011 0.759-1.011 0.885-0.885 0.759-0.885 0.885-0.126 0.253-0.506 0.506-0.126 0.379-0.253 0.506-0.379 0.506v0.506l-0.253 0.632-0.126 0.506v0.506l-0.253 0.379v2.402l0.253 1.138v1.138l0.126 1.517 0.506 1.391 1.138 4.172 13.4 38.432 12.010 38.684 9.987 39.443 8.47 40.075 6.7 40.328 4.551 41.339 2.908 41.466 0.885 42.224-0.885 41.971-2.908 41.466-4.551 41.086-6.574 40.581-8.344 39.822-10.24 39.443-12.010 38.684-13.78 37.926-0.379 1.517-0.253 1.138-0.126 1.138-0.253 1.138-0.253 1.264v3.287l0.253 0.379v0.759l0.253 0.506 0.126 0.379 0.253 0.506 0.126 0.506 0.253 0.506 0.632 0.632 0.379 0.506 0.253 0.379 0.379 0.506 1.138 0.759 1.011 0.632 1.011 0.759 1.264 0.506 1.264 0.632 1.517 0.506 1.643 0.506 1.643 0.379 3.793 0.759 4.172 0.632 4.804 0.506 5.436 0.253h6.068l9.861-0.253h4.172l3.666-0.253 3.287-0.379 2.908-0.506 2.781-0.506 2.528-0.632 2.023-0.759 0.885-0.253 0.759-0.506 0.885-0.126 1.264-1.011 0.379-0.253 0.632-0.379 0.506-0.506 0.379-0.253 0.253-0.506 0.379-0.379 0.379-0.506 0.253-0.506 0.253-0.379 16.94-40.834 14.791-41.086 12.642-41.213 10.493-41.592 8.091-41.719 5.942-42.477 3.54-42.603 1.011-43.236z" />
<glyph unicode="&#xe910;" glyph-name="logic-category" d="M645.12 380.975c-14.584 7.447-31.961 0.621-38.788-15.515l-12.257-29.013c-6.827-16.136-0.621-35.219 14.119-42.667l198.594-101.935-198.749-101.779c-14.584-7.602-20.79-26.531-13.964-42.512l12.257-29.013c6.827-16.136 24.048-22.962 38.633-15.515l278.807 142.895c0.776 0.465 1.396 0.776 2.172 1.241 4.655 2.948 8.068 6.672 10.705 11.792s3.879 10.085 3.879 15.981v34.133c0 12.567-6.516 23.893-16.756 29.013l-278.652 142.895zM223.108 192.155l199.059 101.779c14.584 7.602 20.945 26.531 14.119 42.512l-12.257 29.013c-6.827 16.136-24.204 22.962-38.788 15.515l-279.118-142.895c-0.931-0.465-1.552-0.776-2.327-1.241-4.655-2.948-8.068-6.672-10.705-11.792s-3.879-10.085-3.879-15.981v-34.288c0-12.412 6.516-23.738 16.912-28.858l278.962-142.895c14.739-7.447 32.116-0.621 38.943 15.515l12.257 29.013c6.827 16.136 0.465 35.219-14.119 42.667l-199.059 101.935zM446.992 656.058h-361.968c-16.756 0-30.255-14.274-30.255-31.961v-31.806c0-17.687 13.498-31.961 30.255-31.961h361.968c16.756 0 30.255 14.274 30.255 31.961v31.806c0 17.687-13.498 31.961-30.255 31.961v0zM446.992 847.67h-361.968c-16.756 0-30.255-14.274-30.255-31.961v-31.806c0-17.687 13.498-31.961 30.255-31.961h361.968c16.756 0 30.255 14.274 30.255 31.961v31.806c0 17.687-13.498 31.961-30.255 31.961v0zM939.287 751.942c16.756 0 30.41 14.429 30.41 32.116v31.961c0 17.687-13.653 31.961-30.41 31.961h-22.652l49.183 66.87c5.12 6.982 3.879 17.067-2.793 22.342l-24.048 19.549c-6.672 5.275-16.291 4.034-21.411-2.948l-77.886-105.813h-265.154c-16.756 0-30.41-14.274-30.41-31.961v-31.961c0-17.687 13.653-32.116 30.41-32.116h194.25l-70.749-95.884h-123.501c-16.756 0-30.41-14.429-30.41-32.116v-31.961c0-17.687 13.653-31.961 30.41-31.961h52.752l-49.338-66.87c-5.12-6.982-3.879-17.067 2.793-22.342l24.204-19.549c6.672-5.275 16.136-4.034 21.256 2.948l78.041 105.813h235.055c16.756 0 30.41 14.274 30.41 31.961v31.961c0 17.687-13.653 32.116-30.41 32.116h-164.305l70.749 95.884h93.556z" />
<glyph unicode="&#xe911;" glyph-name="math-category" d="M432.384 733.44h-149.504v129.536c0 16-14.848 28.8-33.152 28.8h-33.28c-18.304 0-33.152-12.8-33.152-28.8v-129.536h-149.504c-18.432 0-33.28-12.928-33.28-28.8v-28.8c0-15.872 14.848-28.8 33.28-28.8h149.504v-129.536c0-16 14.848-28.8 33.152-28.8h33.28c18.304 0 33.152 12.8 33.152 28.8v129.536h149.504c18.432 0 33.28 12.928 33.28 28.8v28.8c0 15.872-14.848 28.8-33.28 28.8v0zM989.056 734.464h-397.952c-18.304 0-33.152-12.8-33.152-28.672v-28.8c0-15.872 14.848-28.672 33.152-28.672h397.952c18.304 0 33.152 12.8 33.152 28.672v28.8c0 15.872-14.848 28.672-33.152 28.672v0zM309.12 216.448l108.8 94.464c13.44 11.648 13.44 30.464 0 41.984l-24.192 20.992c-13.312 11.648-34.944 11.648-48.384 0l-108.8-94.336-108.8 94.336c-13.44 11.648-35.072 11.648-48.384 0l-24.192-20.992c-13.44-11.52-13.44-30.336 0-41.984l108.8-94.464-108.8-94.336c-13.44-11.648-13.44-30.464 0-41.984l24.192-20.992c13.312-11.648 34.944-11.648 48.384 0l108.8 94.336 108.8-94.336c13.44-11.648 35.072-11.648 48.384 0l24.192 20.992c13.44 11.52 13.44 30.336 0 41.984l-108.8 94.336zM790.784 150.656c-36.736 0-66.56-26.112-66.56-58.24s29.824-58.112 66.56-58.112c36.608 0 66.432 25.984 66.432 58.112s-29.824 58.24-66.432 58.24v0zM790.784 325.12c36.608 0 66.432 26.112 66.432 58.24s-29.824 58.112-66.432 58.112c-36.736 0-66.56-25.984-66.56-58.112s29.824-58.24 66.56-58.24v0zM990.208 281.472h-398.976c-18.432 0-33.28-12.928-33.28-29.056v-29.056c0-16.128 14.848-29.056 33.28-29.056h398.976c18.432 0 33.28 12.928 33.28 29.056v29.056c0 16.128-14.848 29.056-33.28 29.056v0z" />
<glyph unicode="&#xe912;" glyph-name="variable" d="M218.839 865.693l-20.15-49.714-17.507-50.539-15.030-51.2-12.222-52.026-9.579-52.852-6.937-53.347-4.129-54.173-1.321-54.834 1.321-54.834 4.129-54.173 6.937-53.347 9.745-52.686 12.387-51.861 14.865-51.365 17.177-50.87 19.819-50.374 0.661-1.982 0.661-1.817 0.495-1.982 0.495-1.652 0.33-1.817 0.165-1.652 0.33-2.973-0.165-0.661v-0.826l-0.661-2.643-0.661-1.321-0.33-0.495-0.495-0.661-0.495-0.495-0.495-0.661-0.495-0.495-0.661-0.495-1.321-1.156-1.486-0.991-1.652-0.826-1.817-0.826-1.982-0.826-2.312-0.826-2.477-0.661-2.477-0.495-2.808-0.495-6.276-0.991-7.432-0.661-8.588-0.33-9.745-0.165-6.937 0.165-6.276 0.165-5.946 0.33-5.285 0.33-4.955 0.661-4.459 0.661-4.129 0.661-3.634 0.826-3.303 0.991-1.486 0.495-1.321 0.661-1.321 0.495-2.312 1.321-1.982 1.321-0.826 0.826-0.826 0.661-1.321 1.652-1.486 2.477-13.213 26.426-12.552 26.426-11.561 26.426-10.735 26.591-9.745 26.756-8.919 26.921-8.093 26.921-7.102 27.086-6.441 27.252-5.45 27.417-4.625 27.417-3.799 27.582-2.808 27.912-2.147 27.912-1.156 28.243-0.495 28.408 0.495 28.243 1.156 28.077 2.312 27.912 2.973 27.747 3.799 27.582 4.79 27.582 5.615 27.252 6.441 27.252 7.267 27.252 8.093 26.921 8.919 26.921 9.745 26.921 10.57 26.756 11.396 26.591 12.222 26.756 13.048 26.591 0.33 0.495 0.33 0.661 0.495 0.661 0.495 0.495 0.495 0.661 1.982 1.486 0.826 0.495 2.973 1.486 2.643 0.991 2.808 0.826 1.652 0.495 1.652 0.33 3.964 0.661 4.294 0.661 5.12 0.33 5.45 0.33 6.441 0.33 14.865 0.165 8.754-0.165 7.928-0.33 7.267-0.495 6.276-0.826 5.45-0.991 2.477-0.495 2.312-0.661 2.147-0.661 1.982-0.826 1.817-0.826 1.652-0.826 1.486-0.826 1.321-0.991 0.495-0.495 0.495-0.661 0.991-0.991 0.495-0.661 0.33-0.495 0.661-1.321 0.661-2.643 0.165-1.321v-2.973l-0.33-1.486-0.165-1.486-0.33-1.652-0.495-1.652-0.661-1.486zM731.83 200.423l0.991-2.147 0.826-1.982 0.661-1.982 0.495-1.817 0.495-1.652 0.165-1.652 0.165-1.486v-2.147l-0.495-1.982-0.661-1.321-0.33-0.495-0.495-0.661-1.652-1.652-0.661-0.495-1.486-0.991-1.652-0.826-1.817-0.826-2.147-0.826-2.477-0.661-2.643-0.661-2.808-0.661-3.138-0.495-6.937-0.661-7.928-0.661-9.249-0.33-22.132-0.33-37.161 0.826-6.606 0.495-5.946 0.661-5.12 0.826-4.294 0.991-1.817 0.661-1.817 0.495-3.303 1.321-1.321 0.826-1.321 0.661-1.156 0.826-1.982 1.652-0.826 0.826-1.652 1.982-1.321 2.312-0.495 1.156-0.661 1.156-84.397 160.206-84.232-160.206-0.661-1.156-0.495-1.156-1.321-2.312-0.661-0.991-0.826-0.991-1.652-1.652-0.991-0.826-1.156-0.826-1.156-0.661-1.321-0.826-2.973-1.321-1.652-0.495-1.817-0.661-1.982-0.495-2.147-0.495-2.312-0.495-2.477-0.33-5.45-0.661-6.276-0.495-34.849-0.826-20.15 0.33-8.423 0.33-7.267 0.661-3.138 0.33-2.973 0.33-2.808 0.495-2.477 0.661-2.312 0.661-2.147 0.661-1.817 0.826-1.652 0.826-1.486 0.826-1.321 0.991-0.495 0.495-0.495 0.661-0.495 0.495-0.33 0.495-0.495 0.661-0.33 0.495-0.165 0.661-0.33 0.661-0.495 1.982v2.147l0.165 1.486 0.33 1.652 0.495 1.652 0.661 1.817 0.661 1.982 0.991 1.982 0.991 2.147 126.348 221.812-116.604 208.268-0.991 2.312-0.991 2.147-0.826 1.982-0.661 1.982-0.991 3.634-0.165 1.817-0.165 1.652v1.486l0.165 0.661 0.165 0.826 0.165 0.661 0.33 0.661 0.165 0.661 0.495 0.661 0.33 0.495 0.495 0.661 0.495 0.495 0.661 0.495 0.661 0.661 0.661 0.495 0.826 0.33 0.826 0.495 1.652 0.826 4.294 1.652 2.643 0.661 2.808 0.495 2.973 0.495 6.772 0.991 7.928 0.661 9.249 0.495 22.462 0.33 36.005-0.826 6.441-0.33 5.615-0.495 4.955-0.661 4.294-0.661 1.817-0.495 3.303-0.991 1.486-0.495 1.321-0.661 1.156-0.661 1.156-0.826 0.991-0.661 0.826-0.991 0.826-0.826 1.652-1.982 0.661-0.991 0.826-1.156 0.661-1.156 0.661-1.321 81.259-150.627 81.259 151.618 0.991 1.982 0.495 0.826 0.661 0.826 0.495 0.826 0.826 0.826 0.661 0.826 0.826 0.661 0.991 0.826 0.991 0.661 1.156 0.661 1.321 0.495 1.321 0.661 1.486 0.495 1.652 0.661 1.817 0.33 1.817 0.495 4.294 0.826 4.79 0.661 5.45 0.661 6.276 0.495 7.267 0.165 17.837 0.33 28.738-0.495 7.432-0.495 6.276-0.661 2.808-0.495 2.477-0.495 2.312-0.661 2.147-0.661 1.817-0.826 0.826-0.33 0.661-0.495 0.826-0.33 0.661-0.495 0.495-0.495 0.661-0.495 0.495-0.661 0.495-0.495 0.33-0.661 0.495-0.495 0.33-0.661 0.165-0.661 0.33-0.661 0.165-0.661 0.165-0.826v-2.147l-0.165-1.652-0.661-3.634-0.661-1.982-0.826-2.147-0.991-2.312-1.156-2.312-1.321-2.477-113.631-204.635 125.357-225.445zM1024 446.018l-0.495-28.408-1.321-28.243-1.982-27.912-2.973-27.912-3.634-27.582-4.625-27.417-5.615-27.417-6.276-27.252-7.267-27.086-7.928-26.921-8.919-26.921-9.579-26.756-10.57-26.591-11.561-26.426-12.387-26.426-13.378-26.426-0.33-0.826-0.495-0.826-1.982-2.477-0.826-0.661-0.826-0.826-0.826-0.661-0.991-0.661-2.312-1.321-1.321-0.495-1.486-0.661-2.973-0.991-1.652-0.495-3.634-0.826-4.129-0.661-4.459-0.661-4.955-0.661-5.45-0.33-5.781-0.33-13.378-0.33-9.91 0.165-8.588 0.33-7.597 0.661-3.303 0.495-2.973 0.495-2.808 0.495-2.643 0.495-2.312 0.661-2.312 0.826-3.964 1.652-1.652 0.826-1.486 0.991-1.321 1.156-0.661 0.495-0.495 0.495-0.495 0.661-0.495 0.495-0.33 0.661-0.33 0.495-0.991 1.982-0.33 1.321v0.661l-0.165 0.826v2.147l0.165 1.486 0.33 1.652 0.33 1.817 0.33 1.652 0.495 1.982 0.661 1.817 0.826 1.982 19.819 49.879 17.507 50.705 14.865 51.365 12.387 52.026 9.745 52.852 6.937 53.512 4.129 54.338 1.486 54.834-1.321 54.834-4.129 54.173-6.937 53.347-9.579 52.852-12.387 52.026-15.030 51.2-17.672 50.539-20.48 49.714-0.495 1.486-0.495 1.652-0.33 1.652-0.33 1.486-0.165 1.486v2.973l0.165 1.321v0.661l0.165 0.661 0.33 0.661 0.165 0.661 0.661 1.321 0.33 0.495 0.495 0.661 0.991 0.991 0.495 0.661 1.982 1.486 1.486 0.826 1.652 0.826 1.817 0.826 1.982 0.826 2.147 0.661 2.312 0.661 2.477 0.495 5.45 0.991 6.276 0.826 7.102 0.495 8.093 0.33 9.084 0.165 14.369-0.165 6.111-0.33 5.45-0.33 4.955-0.33 4.459-0.661 3.964-0.661 3.634-0.826 2.973-0.826 1.486-0.495 2.312-0.991 0.991-0.495 1.652-0.991 1.982-1.486 0.495-0.661 0.495-0.495 0.991-1.321 0.33-0.495 25.105-53.347 21.636-53.512 18.663-53.677 15.36-54.173 12.057-54.503 8.754-54.999 5.12-55.825 1.817-56.32z" />
<glyph unicode="&#xe913;" glyph-name="lines-colors" horiz-adv-x="937" d="M127.393 311.582c-4.165-10.587-14.232-17.009-25.86-17.009-19.786 0-80.532 47.035-97.887 58.489 0-139.889 67.167-262.942 226.668-262.942 134.335 0 226.842 74.283 226.842 204.279 0 5.207-1.215 10.24-1.736 15.447l-156.030 124.616c-70.986-4.339-135.55-30.373-171.997-122.88zM814.687 960c-26.902 0-52.068-11.455-71.333-27.943-362.045-310.324-399.707-317.614-399.707-408.906 0-23.257 5.901-45.473 15.447-65.779l113.161-90.251c12.67-3.124 25.86-5.207 39.572-5.207 110.037 0 173.733 77.234 374.020 435.807 13.017 24.298 24.645 50.679 24.645 78.102 0 49.117-45.993 84.176-95.805 84.176zM15.967 32.499c-7.984 0-15.967-7.984-15.967-15.967v-64.391c0-7.984 7.984-16.141 15.967-16.141h905.285c7.984 0 16.141 8.157 16.141 16.141v64.391c0 7.984-8.157 15.967-16.141 15.967h-905.285z" />
<glyph unicode="&#xe914;" glyph-name="backward" horiz-adv-x="896" d="M515 69.8l-44.4-44.4c-18.8-18.8-49.2-18.8-67.8 0l-388.8 388.6c-18.8 18.8-18.8 49.2 0 67.8l388.8 388.8c18.8 18.8 49.2 18.8 67.8 0l44.4-44.4c19-19 18.6-50-0.8-68.6l-241-229.6h574.8c26.6 0 48-21.4 48-48v-64c0-26.6-21.4-48-48-48h-574.8l241-229.6c19.6-18.6 20-49.6 0.8-68.6z" />
<glyph unicode="&#xe915;" glyph-name="bug" d="M1023.976 382.2c-0.956-34.86-30.434-62.2-65.306-62.2h-110.67v-32c0-43.728-9.764-85.168-27.2-122.29l120.456-120.456c24.992-24.994 24.992-65.516 0-90.51-24.996-24.994-65.518-24.992-90.512 0l-109.472 109.472c-49.5-40.146-112.57-64.216-181.272-64.216v488c0 13.254-10.746 24-24 24h-48c-13.254 0-24-10.746-24-24v-488c-68.702 0-131.772 24.070-181.272 64.216l-109.472-109.472c-24.996-24.994-65.518-24.992-90.512 0-24.992 24.994-24.992 65.516 0 90.51l120.456 120.456c-17.436 37.122-27.2 78.562-27.2 122.29v32h-110.668c-34.872 0-64.35 27.34-65.306 62.2-0.994 36.168 28.030 65.8 63.974 65.8h112v117.49l-93.256 93.256c-24.992 24.994-24.992 65.516 0 90.51 24.996 24.994 65.516 24.994 90.512 0l109.254-109.256h458.978l109.254 109.254c24.996 24.994 65.516 24.994 90.512 0 24.992-24.994 24.992-65.516 0-90.51l-93.254-93.254v-117.49h112c35.944 0 64.968-29.632 63.976-65.8zM514 960c-123.712 0-224-100.288-224-224h448c0 123.712-100.288 224-224 224z" />
<glyph unicode="&#xe916;" glyph-name="forward" horiz-adv-x="896" d="M381 826.2l44.4 44.4c18.8 18.8 49.2 18.8 67.8 0l388.8-388.6c18.8-18.8 18.8-49.2 0-67.8l-388.8-388.8c-18.8-18.8-49.2-18.8-67.8 0l-44.4 44.4c-19 19-18.6 50 0.8 68.6l241 229.6h-574.8c-26.6 0-48 21.4-48 48v64c0 26.6 21.4 48 48 48h574.8l-241 229.6c-19.6 18.6-20 49.6-0.8 68.6z" />
<glyph unicode="&#xe917;" glyph-name="stop-solid" horiz-adv-x="896" d="M800 896h-704c-53 0-96-43-96-96v-704c0-53 43-96 96-96h704c53 0 96 43 96 96v704c0 53-43 96-96 96z" />
<glyph unicode="&#xe918;" glyph-name="angle-up" horiz-adv-x="640" d="M354 640.6l272-272c18.8-18.8 18.8-49.2 0-67.8l-45.2-45.2c-18.8-18.8-49.2-18.8-67.8 0l-193 192.6-192.8-192.8c-18.8-18.8-49.2-18.8-67.8 0l-45.4 45.2c-18.8 18.8-18.8 49.2 0 67.8l272 272c18.8 19 49.2 19 68 0.2z" />
<glyph unicode="&#xe919;" glyph-name="trash" horiz-adv-x="896" d="M64 32c0-53.019 42.981-96 96-96v0h576c53.019 0 96 42.981 96 96v0 672h-768zM608 544c0 17.673 14.327 32 32 32s32-14.327 32-32v0-448c0-17.673-14.327-32-32-32s-32 14.327-32 32v0zM416 544c0 17.673 14.327 32 32 32s32-14.327 32-32v0-448c0-17.673-14.327-32-32-32s-32 14.327-32 32v0zM224 544c0 17.673 14.327 32 32 32s32-14.327 32-32v0-448c0-17.673-14.327-32-32-32s-32 14.327-32 32v0zM864 896h-240l-18.8 37.4c-8.044 15.894-24.255 26.6-42.966 26.6-0.012 0-0.024 0-0.036 0h-228.598c-0.054 0-0.118 0-0.182 0-18.614 0-34.725-10.721-42.493-26.325l-0.124-0.276-18.8-37.4h-240c-17.673 0-32-14.327-32-32v0-64c0-17.673 14.327-32 32-32v0h832c17.673 0 32 14.327 32 32v0 64c0 17.673-14.327 32-32 32v0z" />
<glyph unicode="&#xe91a;" glyph-name="times" horiz-adv-x="704" d="M485.44 448l200.14 200.14c24.56 24.56 24.56 64.38 0 88.96l-44.48 44.48c-24.56 24.56-64.38 24.56-88.96 0l-200.14-200.14-200.14 200.14c-24.56 24.56-64.38 24.56-88.96 0l-44.48-44.48c-24.56-24.56-24.56-64.38 0-88.96l200.14-200.14-200.14-200.14c-24.56-24.56-24.56-64.38 0-88.96l44.48-44.48c24.56-24.56 64.4-24.56 88.96 0l200.14 200.14 200.14-200.14c24.56-24.56 64.4-24.56 88.96 0l44.48 44.48c24.56 24.56 24.56 64.38 0 88.96l-200.14 200.14z" />
<glyph unicode="&#xe91b;" glyph-name="bars" horiz-adv-x="896" d="M32 696h832c17.674 0 32 14.326 32 32v80c0 17.674-14.326 32-32 32h-832c-17.674 0-32-14.326-32-32v-80c0-17.674 14.326-32 32-32zM32 376h832c17.674 0 32 14.326 32 32v80c0 17.674-14.326 32-32 32h-832c-17.674 0-32-14.326-32-32v-80c0-17.674 14.326-32 32-32zM32 56h832c17.674 0 32 14.326 32 32v80c0 17.674-14.326 32-32 32h-832c-17.674 0-32-14.326-32-32v-80c0-17.674 14.326-32 32-32z" />
<glyph unicode="&#xe91c;" glyph-name="user" horiz-adv-x="896" d="M448 448c141.4 0 256 114.6 256 256s-114.6 256-256 256-256-114.6-256-256 114.6-256 256-256zM627.2 384h-33.4c-44.4-20.4-93.8-32-145.8-32s-101.2 11.6-145.8 32h-33.4c-148.4 0-268.8-120.4-268.8-268.8v-83.2c0-53 43-96 96-96h704c53 0 96 43 96 96v83.2c0 148.4-120.4 268.8-268.8 268.8z" />
<glyph unicode="&#xe91d;" glyph-name="sign-out" d="M994 414l-336-336c-30-30-82-9-82 34v192h-272c-26.6 0-48 21.4-48 48v192c0 26.6 21.4 48 48 48h272v192c0 42.8 51.8 64 82 34l336-336c18.6-18.8 18.6-49.2 0-68zM384 88v80c0 13.2-10.8 24-24 24h-168c-35.4 0-64 28.6-64 64v384c0 35.4 28.6 64 64 64h168c13.2 0 24 10.8 24 24v80c0 13.2-10.8 24-24 24h-168c-106 0-192-86-192-192v-384c0-106 86-192 192-192h168c13.2 0 24 10.8 24 24z" />
<glyph unicode="&#xe91e;" glyph-name="chevron-left" horiz-adv-x="640" d="M69.040 481.94l388.7 388.68c18.74 18.74 49.14 18.74 67.88 0l45.34-45.34c18.72-18.72 18.74-49.040 0.080-67.8l-308.060-309.48 308.040-309.5c18.68-18.76 18.64-49.080-0.080-67.8l-45.34-45.34c-18.74-18.74-49.14-18.74-67.88 0l-388.68 388.7c-18.74 18.74-18.74 49.14 0 67.88z" />
<glyph unicode="&#xe91f;" glyph-name="chevron-right" horiz-adv-x="640" d="M570.952 414.058l-388.688-388.686c-18.746-18.746-49.138-18.746-67.882 0l-45.334 45.334c-18.714 18.714-18.75 49.044-0.080 67.802l308.042 309.492-308.042 309.49c-18.67 18.758-18.634 49.088 0.080 67.802l45.334 45.334c18.746 18.746 49.138 18.746 67.882 0l388.686-388.686c18.746-18.744 18.746-49.136 0.002-67.882z" />
<glyph unicode="&#xe920;" glyph-name="angle-left" horiz-adv-x="512" d="M63.4 482l272 272c18.8 18.8 49.2 18.8 67.8 0l45.2-45.2c18.8-18.8 18.8-49.2 0-67.8l-192.6-193 192.8-192.8c18.8-18.8 18.8-49.2 0-67.8l-45.2-45.4c-18.8-18.8-49.2-18.8-67.8 0l-272 272c-19 18.8-19 49.2-0.2 68z" />
<glyph unicode="&#xe921;" glyph-name="angle-right" horiz-adv-x="512" d="M448.6 414l-272-272c-18.8-18.8-49.2-18.8-67.8 0l-45.2 45.2c-18.8 18.8-18.8 49.2 0 67.8l192.8 192.8-192.8 192.8c-18.8 18.8-18.8 49.2 0 67.8l45 45.6c18.8 18.8 49.2 18.8 67.8 0l272-272c19-18.8 19-49.2 0.2-68z" />
<glyph unicode="&#xe922;" glyph-name="search" d="M1010 74.6l-199.4 199.4c-9 9-21.2 14-34 14h-32.6c55.2 70.6 88 159.4 88 256 0 229.8-186.2 416-416 416s-416-186.2-416-416 186.2-416 416-416c96.6 0 185.4 32.8 256 88v-32.6c0-12.8 5-25 14-34l199.4-199.4c18.8-18.8 49.2-18.8 67.8 0l56.6 56.6c18.8 18.8 18.8 49.2 0.2 68zM416 288c-141.4 0-256 114.4-256 256 0 141.4 114.4 256 256 256 141.4 0 256-114.4 256-256 0-141.4-114.4-256-256-256z" />
<glyph unicode="&#xe923;" glyph-name="plus" horiz-adv-x="896" d="M832 544h-288v288c0 35.34-28.66 64-64 64h-64c-35.34 0-64-28.66-64-64v-288h-288c-35.34 0-64-28.66-64-64v-64c0-35.34 28.66-64 64-64h288v-288c0-35.34 28.66-64 64-64h64c35.34 0 64 28.66 64 64v288h288c35.34 0 64 28.66 64 64v64c0 35.34-28.66 64-64 64z" />
<glyph unicode="&#xe924;" glyph-name="folder-plus" d="M928 704h-384l-128 128h-320c-53.019 0-96-42.981-96-96v0-576c0-53.019 42.981-96 96-96v0h832c53.019 0 96 42.981 96 96v0 448c0 53.019-42.981 96-96 96v0zM719 368c0-17.673-14.327-32-32-32v0h-128v-128c0-17.673-14.327-32-32-32v0h-32c-17.673 0-32 14.327-32 32v0 128h-128c-17.673 0-32 14.327-32 32v0 32c0 17.673 14.327 32 32 32v0h128v128c0 17.673 14.327 32 32 32v0h32c17.673 0 32-14.327 32-32v0-128h128c17.673 0 32-14.327 32-32v0z" />
<glyph unicode="&#xe925;" glyph-name="layer" d="M24.82 663.96l465.88-211.34c13.6-6.18 28.98-6.18 42.58 0l465.88 211.34c33.1 15.020 33.1 65.040 0 80.060l-465.86 211.36c-6.249 2.927-13.57 4.635-21.29 4.635s-15.041-1.708-21.605-4.767l0.315 0.132-465.9-211.34c-33.1-15.020-33.1-65.060 0-80.080zM999.18 487.4l-116.18 52.66-323.28-146.54c-15.12-6.86-31.18-10.34-47.72-10.34s-32.58 3.48-47.72 10.34l-323.26 146.54-116.2-52.66c-33.1-15-33.1-65 0-80l465.88-211.18c13.6-6.16 28.98-6.16 42.58 0l465.9 211.18c33.1 15 33.1 65 0 80zM999.18 231.8l-115.74 52.46-323.72-146.74c-15.12-6.86-31.18-10.34-47.72-10.34s-32.58 3.48-47.72 10.34l-323.7 146.74-115.76-52.46c-33.1-15-33.1-65 0-80l465.88-211.18c13.6-6.16 28.98-6.16 42.58 0l465.9 211.18c33.1 15 33.1 65 0 80z" />
<glyph unicode="&#xe926;" glyph-name="pen" d="M581.48 773.52l256.040-256.040-555.98-555.98-228.28-25.2c-30.56-3.38-56.38 22.46-52.98 53.020l25.4 228.44 555.8 555.76zM995.88 811.64l-120.22 120.22c-37.5 37.5-98.32 37.5-135.82 0l-113.1-113.1 256.040-256.040 113.1 113.1c37.5 37.52 37.5 98.32 0 135.82z" />
<glyph unicode="&#xe927;" glyph-name="rocket" d="M1010.24 921.812c-2.379 11.063-13.316 22-24.414 24.375-64.394 13.813-114.812 13.813-165.011 13.813-206.464 0-330.277-110.406-422.71-256h-208.429c-32.695-0.031-71.113-23.75-85.773-52.969l-98.871-197.625c-2.917-6.275-4.741-13.593-5.028-21.303l-0.003-0.103c0.010-26.51 21.501-47.997 48.011-48h207.621l-44.949-44.938c-22.73-22.723-25.992-64.516 0-90.5l101.808-101.813c22.312-22.375 64.312-26.313 90.555 0l44.949 44.938v-207.688c0.010-26.51 21.501-47.997 48.011-48v0c7.817 0.298 15.136 2.121 21.769 5.178l-0.355-0.147 197.457 98.781c29.258 14.594 53.016 53 53.016 85.719v208.875c145.195 92.625 256.070 216.813 256.070 422.188 0.188 50.406 0.188 100.812-13.723 165.219zM768.081 624c-44.175 0.011-79.981 35.824-79.981 80 0 44.183 35.817 80 80 80s80-35.817 80-80v0c-0.026-44.179-35.839-79.985-80.018-80h-0.002z" />
<glyph unicode="&#xe928;" glyph-name="star" horiz-adv-x="1152" d="M518.6 924.4l-130.6-264.8-292.2-42.6c-52.4-7.6-73.4-72.2-35.4-109.2l211.4-206-50-291c-9-52.6 46.4-92 92.8-67.4l261.4 137.4 261.4-137.4c46.4-24.4 101.8 14.8 92.8 67.4l-50 291 211.4 206c38 37 17 101.6-35.4 109.2l-292.2 42.6-130.6 264.8c-23.4 47.2-91.2 47.8-114.8 0z" />
<glyph unicode="&#xe929;" glyph-name="strikethrough-solid" d="M992 512h-404.2l-174.34 53.66c-35.888 11.307-61.458 44.287-61.458 83.24 0 48.103 38.995 87.099 87.098 87.1h133.58c0.021 0 0.047 0 0.073 0 38.842 0 72.501-22.194 88.986-54.593l0.262-0.567c5.373-10.564 16.164-17.675 28.615-17.675 5.214 0 10.137 1.247 14.487 3.459l-0.182-0.084 85.88 42.94c10.573 5.37 17.691 16.165 17.691 28.623 0 5.211-1.246 10.131-3.455 14.479l0.084-0.182-1.060 2c-42.951 84.622-129.33 141.6-229.017 141.6-0.008 0-0.017 0-0.025 0h-135.998c-136.527-0.114-247.159-110.817-247.159-247.36 0-8.423 0.421-16.748 1.243-24.955l-0.084 1.035c4-41.78 20.2-79.66 43.56-112.72h-204.58c-17.673 0-32-14.327-32-32v0-64c0-17.673 14.327-32 32-32v0h960c17.673 0 32 14.327 32 32v0 64c0 17.673-14.327 32-32 32v0zM631.52 320c24.448-15.432 40.456-42.294 40.48-72.896v-0.004c-0.046-48.086-39.014-87.055-87.096-87.1h-133.584c-0.021 0-0.047 0-0.073 0-38.842 0-72.501 22.194-88.986 54.593l-0.262 0.567c-5.373 10.564-16.164 17.675-28.615 17.675-5.214 0-10.137-1.247-14.487-3.459l0.182 0.084-85.88-42.94c-10.573-5.37-17.691-16.165-17.691-28.623 0-5.211 1.246-10.131 3.455-14.479l-0.084 0.182 1.060-2c42.951-84.622 129.33-141.6 229.017-141.6 0.008 0 0.017 0 0.025 0h135.998c136.527 0.114 247.159 110.817 247.159 247.36 0 8.423-0.421 16.748-1.243 24.955l0.084-1.035c-1.972 18.095-5.733 34.6-11.162 50.326l0.482-1.606z" />
<glyph unicode="&#xe92a;" glyph-name="copy-solid" horiz-adv-x="896" d="M640 64v-80c0-26.51-21.49-48-48-48h-544c-26.51 0-48 21.49-48 48v736c0 26.51 21.49 48 48 48h144v-592c0-61.758 50.242-112 112-112h336zM640 752v208h-336c-26.51 0-48-21.49-48-48v-736c0-26.51 21.49-48 48-48h544c26.51 0 48 21.49 48 48v528h-208c-26.4 0-48 21.6-48 48zM881.942 814.058l-131.884 131.884c-8.686 8.686-20.686 14.058-33.94 14.058h-12.118v-192h192v12.118c0 13.254-5.372 25.254-14.058 33.94v0z" />
<glyph unicode="&#xe92b;" glyph-name="italic-solid1" horiz-adv-x="640" d="M640 864v-64c0-17.673-14.327-32-32-32v0h-125.52l-160-640h93.52c17.673 0 32-14.327 32-32v0-64c0-17.673-14.327-32-32-32v0h-384c-17.673 0-32 14.327-32 32v0 64c0 17.673 14.327 32 32 32v0h125.52l160 640h-93.52c-17.673 0-32 14.327-32 32v0 64c0 17.673 14.327 32 32 32v0h384c17.673 0 32-14.327 32-32v0z" />
<glyph unicode="&#xe92c;" glyph-name="heading-solid-11" d="M896 768v-640h64c17.673 0 32-14.327 32-32v0-64c0-17.673-14.327-32-32-32v0h-320c-17.673 0-32 14.327-32 32v0 64c0 17.673 14.327 32 32 32v0h64v256h-384v-256h64c17.673 0 32-14.327 32-32v0-64c0-17.673-14.327-32-32-32v0h-320c-17.673 0-32 14.327-32 32v0 64c0 17.673 14.327 32 32 32v0h64v640h-64c-17.673 0-32 14.327-32 32v0 64c0 17.673 14.327 32 32 32v0h320c17.673 0 32-14.327 32-32v0-64c0-17.673-14.327-32-32-32v0h-64v-256h384v256h-64c-17.673 0-32 14.327-32 32v0 64c0 17.673 14.327 32 32 32v0h320c17.673 0 32-14.327 32-32v0-64c0-17.673-14.327-32-32-32v0z" />
<glyph unicode="&#xe92d;" glyph-name="italic-solid" horiz-adv-x="640" d="M640 864v-64c0-17.673-14.327-32-32-32v0h-125.52l-160-640h93.52c17.673 0 32-14.327 32-32v0-64c0-17.673-14.327-32-32-32v0h-384c-17.673 0-32 14.327-32 32v0 64c0 17.673 14.327 32 32 32v0h125.52l160 640h-93.52c-17.673 0-32 14.327-32 32v0 64c0 17.673 14.327 32 32 32v0h384c17.673 0 32-14.327 32-32v0z" />
<glyph unicode="&#xe92e;" glyph-name="heading-solid-1" d="M896 768v-640h64c17.673 0 32-14.327 32-32v0-64c0-17.673-14.327-32-32-32v0h-320c-17.673 0-32 14.327-32 32v0 64c0 17.673 14.327 32 32 32v0h64v256h-384v-256h64c17.673 0 32-14.327 32-32v0-64c0-17.673-14.327-32-32-32v0h-320c-17.673 0-32 14.327-32 32v0 64c0 17.673 14.327 32 32 32v0h64v640h-64c-17.673 0-32 14.327-32 32v0 64c0 17.673 14.327 32 32 32v0h320c17.673 0 32-14.327 32-32v0-64c0-17.673-14.327-32-32-32v0h-64v-256h384v256h-64c-17.673 0-32 14.327-32 32v0 64c0 17.673 14.327 32 32 32v0h320c17.673 0 32-14.327 32-32v0-64c0-17.673-14.327-32-32-32v0z" />
<glyph unicode="&#xe92f;" glyph-name="paragraph-solid" horiz-adv-x="896" d="M896 864v-64c0-17.673-14.327-32-32-32v0h-96v-736c0-17.673-14.327-32-32-32v0h-64c-17.673 0-32 14.327-32 32v0 736h-64v-736c0-17.673-14.327-32-32-32v0h-64c-17.673 0-32 14.327-32 32v0 224h-64c-176.731 0-320 143.269-320 320s143.269 320 320 320v0h480c17.673 0 32-14.327 32-32v0z" />
<glyph unicode="&#xe930;" glyph-name="bold-solid" horiz-adv-x="768" d="M666.98 484c29.349 35.636 48.888 80.359 53.914 129.381l0.086 1.039c14.76 152.6-104.98 281.58-254.14 281.58h-398.84c-17.673 0-32-14.327-32-32v0-96c0-17.673 14.327-32 32-32v0h63.74v-576h-63.74c-17.673 0-32-14.327-32-32v0-96c0-17.673 14.327-32 32-32v0h418.64c141.6 0 268.28 103.5 282 244.8 9.48 96.9-32.78 184.12-101.66 239.2zM291.32 736h175.52c53.019 0 96-42.981 96-96s-42.981-96-96-96v0h-175.52zM466.84 160h-175.52v224h175.52c61.856 0 112-50.144 112-112s-50.144-112-112-112v0z" />
<glyph unicode="&#xe931;" glyph-name="window-minimize-regular" d="M960 0h-896c-35.4 0-64 28.6-64 64s28.6 64 64 64h896c35.4 0 64-28.6 64-64s-28.6-64-64-64z" />
<glyph unicode="&#xe932;" glyph-name="underline-solid" horiz-adv-x="896" d="M64 832h64v-320c0-176.44 143.56-320 320-320s320 143.56 320 320v320h64c17.673 0 32 14.327 32 32v0 64c0 17.673-14.327 32-32 32v0h-288c-17.673 0-32-14.327-32-32v0-64c0-17.673 14.327-32 32-32v0h64v-320c0-88.366-71.634-160-160-160s-160 71.634-160 160v0 320h64c17.673 0 32 14.327 32 32v0 64c0 17.673-14.327 32-32 32v0h-288c-17.673 0-32-14.327-32-32v0-64c0-17.673 14.327-32 32-32v0zM864 64h-832c-17.673 0-32-14.327-32-32v0-64c0-17.673 14.327-32 32-32v0h832c17.673 0 32 14.327 32 32v0 64c0 17.673-14.327 32-32 32v0z" />
<glyph unicode="&#xe933;" glyph-name="list-ul-solid" d="M96 864c-53.019 0-96-42.981-96-96s42.981-96 96-96c53.019 0 96 42.981 96 96v0c0 53.019-42.981 96-96 96v0zM96 544c-53.019 0-96-42.981-96-96s42.981-96 96-96c53.019 0 96 42.981 96 96v0c0 53.019-42.981 96-96 96v0zM96 224c-53.019 0-96-42.981-96-96s42.981-96 96-96c53.019 0 96 42.981 96 96v0c0 53.019-42.981 96-96 96v0zM992 192h-640c-17.673 0-32-14.327-32-32v0-64c0-17.673 14.327-32 32-32v0h640c17.673 0 32 14.327 32 32v0 64c0 17.673-14.327 32-32 32v0zM992 832h-640c-17.673 0-32-14.327-32-32v0-64c0-17.673 14.327-32 32-32v0h640c17.673 0 32 14.327 32 32v0 64c0 17.673-14.327 32-32 32v0zM992 512h-640c-17.673 0-32-14.327-32-32v0-64c0-17.673 14.327-32 32-32v0h640c17.673 0 32 14.327 32 32v0 64c0 17.673-14.327 32-32 32v0z" />
</font>
</defs>
</svg>
